<svg id="Layer_1" data-name="Layer 1" xmlns="http://www.w3.org/2000/svg" viewBox="0 0 2672.93 377.76"><defs><style>.cls-1{fill:#006cb7;}.cls-2{fill:#231f20;}</style></defs><title>oath-dev-guide-black</title><path class="cls-1" d="M121.88,209.88a36.59,36.59,0,1,1-36.59-36.59,36.59,36.59,0,0,1,36.59,36.59"/><path class="cls-1" d="M121.88,116.67A36.59,36.59,0,1,1,85.29,80.09a36.59,36.59,0,0,1,36.59,36.58"/><path class="cls-2" d="M384.47,196.48c0-50.55,35.35-89.21,86.89-89.21,24.12,0,43.28,7.93,57.82,21.15,20.15,18.5,30.07,47.9,29.74,82.27H437.33c3.31,22.79,15.86,37,38,37,14.2,0,23.46-6.28,28.08-16.85h52.53c-3.63,15.2-13.54,29.73-28.41,40-14.21,9.91-31.39,15.52-52.86,15.52C418.83,286.34,384.47,247.69,384.47,196.48ZM504.4,178.64c-2-20.16-14.54-33-32-33-20.48,0-31.05,12.88-34.69,33Z"/><path class="cls-2" d="M558.26,112.23h55.5l23.13,76.32c5,16.85,9.25,34,9.25,34h.66s4.3-17.18,9.25-34l23.46-76.32h53.86L674.89,281.39H616.74Z"/><path class="cls-2" d="M731.06,196.48c0-50.55,35.35-89.21,86.89-89.21,24.12,0,43.28,7.93,57.82,21.15,20.15,18.5,30.06,47.9,29.73,82.27H783.92c3.3,22.79,15.86,37,38,37,14.21,0,23.46-6.28,28.09-16.85h52.53c-3.64,15.2-13.55,29.73-28.42,40-14.2,9.91-31.38,15.52-52.86,15.52C765.42,286.34,731.06,247.69,731.06,196.48ZM851,178.64c-2-20.16-14.54-33-32-33-20.49,0-31.06,12.88-34.69,33Z"/><path class="cls-2" d="M924,45.16h54.51V281.39H924Z"/><path class="cls-2" d="M997,197.14c0-50.88,36.35-89.54,90.53-89.54,54.51,0,90.2,38.66,90.2,89.54s-35.69,89.54-90.2,89.54C1033.37,286.68,997,248,997,197.14Zm126.21,0c0-30.73-12.55-51.54-36-51.54s-35.68,20.81-35.68,51.54,12.22,51.21,35.68,51.21S1123.23,227.87,1123.23,197.14Z"/><path class="cls-2" d="M1195.92,112.23h51.54v20.48h1c11.57-15.19,28.09-25.44,51.21-25.44,44.93,0,72.36,38.66,72.36,89.54,0,54.84-29.41,89.87-73.68,89.87-21.8,0-37.33-8.6-47.91-22.8h-.66v73.34h-53.85Zm121.58,86.56c0-29.07-10.9-48.24-34-48.24-23.45,0-35.35,20.82-35.35,48.24s13.22,46.26,36.34,46.26C1305,245.05,1317.5,227.54,1317.5,198.79Z"/><path class="cls-2" d="M1382.59,196.48c0-50.55,35.36-89.21,86.89-89.21,24.12,0,43.29,7.93,57.82,21.15,20.16,18.5,30.07,47.9,29.74,82.27H1435.46c3.3,22.79,15.85,37,38,37,14.21,0,23.46-6.28,28.08-16.85h52.53c-3.63,15.2-13.54,29.73-28.41,40-14.21,9.91-31.39,15.52-52.86,15.52C1417,286.34,1382.59,247.69,1382.59,196.48Zm119.93-17.84c-2-20.16-14.53-33-32-33-20.49,0-31.06,12.88-34.69,33Z"/><path class="cls-2" d="M1575.21,112.23h51.54v26.43h1c11.89-20.15,25.77-29.07,46.25-29.07,5,0,8.26.33,10.57,1.32v46.25h-1.32c-33-4.62-54.18,11.57-54.18,48.24v76h-53.86Z"/><path class="cls-2" d="M1778.74,253.64c-20.49-22.47-31.72-53.53-31.72-89.54,0-37,12.55-69.71,35-92.18C1801.53,52.1,1829,40.54,1863,40.54c60.8,0,97.14,32.37,104.74,81.93h-56.83c-4.29-19.16-20.15-33.7-45.92-33.7-39,0-58.48,32.38-58.48,75.33,0,43.28,22.46,75.33,59.47,75.33,30.72,0,48.9-20.48,51.21-41.3v-.66H1872.9V154.52h98.45V281.39h-41l-3.3-28.41h-.66c-15.53,24.11-38.66,33.7-67.07,33.7C1825.65,286.68,1798.23,274.78,1778.74,253.64Z"/><path class="cls-2" d="M1995.15,223.24v-111h53.52V212c0,18.5,8.26,28.74,25.44,28.74,18.5,0,29.73-13.87,29.73-34V112.23h53.86V281.39h-51.54V260.57h-1c-12.23,16.52-27.1,25.77-50.55,25.77C2015.63,286.34,1995.15,260.9,1995.15,223.24Z"/><path class="cls-2" d="M2183.47,45.16h53.85V88.77h-53.85Zm0,67.07h53.85V281.39h-53.85Z"/><path class="cls-2" d="M2255.5,196.81c0-52.86,30.39-89.54,74-89.54,23.79,0,37.34,9.92,47.25,24.12h1V45.16h53.85V281.39h-51.54v-22.8h-.66c-10.24,17.51-27.75,28.09-49.89,28.09C2286.22,286.68,2255.5,253.31,2255.5,196.81Zm123.56,0c0-28.41-11.56-48.9-35-48.9-21.47,0-34,19.83-34,48.24,0,29.4,12.56,47.9,33.37,47.9C2365.85,244.05,2379.06,224.56,2379.06,196.81Z"/><path class="cls-2" d="M2449.77,196.48c0-50.55,35.35-89.21,86.89-89.21,24.12,0,43.28,7.93,57.82,21.15,20.15,18.5,30.06,47.9,29.73,82.27H2502.63c3.3,22.79,15.86,37,38,37,14.2,0,23.45-6.28,28.08-16.85h52.53c-3.63,15.2-13.55,29.73-28.41,40-14.21,9.91-31.39,15.52-52.87,15.52C2484.13,286.34,2449.77,247.69,2449.77,196.48Zm119.93-17.84c-2-20.16-14.54-33-32-33-20.48,0-31.05,12.88-34.69,33Z"/><path class="cls-2" d="M162.45,45.16H263.22c65.41,0,109.35,47.25,109.35,119.6,0,41.63-14.53,75-41,95.15-18.5,13.88-42.29,21.48-72,21.48H162.45Zm92.84,187c38.32,0,58.15-24.12,58.15-67.4,0-42.95-20.82-70.7-57.49-70.7h-35v138.1Z"/></svg>